<?xml version="1.0" encoding="utf-8"?>
<!-- Generator: Adobe Illustrator 23.1.1, SVG Export Plug-In . SVG Version: 6.00 Build 0)  -->
<svg version="1.1" id="Calque_1" xmlns="http://www.w3.org/2000/svg" xmlns:xlink="http://www.w3.org/1999/xlink" x="0px" y="0px"
	 viewBox="0 0 375 71" style="enable-background:new 0 0 375 71;" xml:space="preserve">
<style type="text/css">
	.st0{enable-background:new    ;}
	.st1{fill:none;}
	.st2{fill:none;stroke:#000000;stroke-width:6;}
</style>
<g>
	<g class="st0">
		<path d="M696,68.5c-4.9,0-9.5-0.8-13.8-2.5c-4.3-1.7-8-4.1-11.2-7.2s-5.7-6.8-7.5-11.1c-1.9-4.4-2.8-9.2-2.8-14.5
			c0-5.3,0.9-10.2,2.8-14.5c1.9-4.4,4.4-8.1,7.6-11.2c3.2-3.1,6.9-5.5,11.2-7.2c4.3-1.7,8.8-2.6,13.5-2.6c5.1,0,9.5,0.7,13.2,2.2
			c3.7,1.5,6.8,3.3,9.4,5.6c2.6,2.3,4.6,4.8,6,7.4c1.4,2.7,2.4,5.2,3,7.7L713.2,25c-0.3-1.2-0.8-2.5-1.5-3.9
			c-0.7-1.5-1.8-2.9-3.1-4.2c-1.3-1.3-3.1-2.4-5.1-3.3c-2.1-0.9-4.6-1.3-7.6-1.3c-2.3,0-4.6,0.4-6.9,1.2c-2.3,0.8-4.4,2.1-6.2,3.8
			c-1.9,1.7-3.4,3.9-4.5,6.5c-1.2,2.6-1.7,5.7-1.7,9.3c0,3.2,0.5,6,1.6,8.5c1.1,2.5,2.5,4.6,4.4,6.3c1.8,1.7,3.9,3,6.2,3.9
			c2.3,0.9,4.8,1.3,7.3,1.3c2.9,0,5.5-0.4,7.6-1.3c2.1-0.9,3.9-2,5.3-3.3c1.4-1.3,2.5-2.7,3.3-4.2c0.8-1.5,1.4-2.8,1.7-4l14.5,4.1
			c-0.6,2.4-1.6,4.9-3,7.7c-1.4,2.8-3.5,5.3-6,7.7c-2.6,2.4-5.8,4.4-9.6,6C705.8,67.7,701.3,68.5,696,68.5z"/>
		<path d="M696,68.5c-4.9,0-9.5-0.8-13.8-2.5c-4.3-1.7-8-4.1-11.2-7.2s-5.7-6.8-7.5-11.1c-1.9-4.4-2.8-9.2-2.8-14.5
			c0-5.3,0.9-10.2,2.8-14.5c1.9-4.4,4.4-8.1,7.6-11.2c3.2-3.1,6.9-5.5,11.2-7.2c4.3-1.7,8.8-2.6,13.5-2.6c5.1,0,9.5,0.7,13.2,2.2
			c3.7,1.5,6.8,3.3,9.4,5.6c2.6,2.3,4.6,4.8,6,7.4c1.4,2.7,2.4,5.2,3,7.7L713.2,25c-0.3-1.2-0.8-2.5-1.5-3.9
			c-0.7-1.5-1.8-2.9-3.1-4.2c-1.3-1.3-3.1-2.4-5.1-3.3c-2.1-0.9-4.6-1.3-7.6-1.3c-2.3,0-4.6,0.4-6.9,1.2c-2.3,0.8-4.4,2.1-6.2,3.8
			c-1.9,1.7-3.4,3.9-4.5,6.5c-1.2,2.6-1.7,5.7-1.7,9.3c0,3.2,0.5,6,1.6,8.5c1.1,2.5,2.5,4.6,4.4,6.3c1.8,1.7,3.9,3,6.2,3.9
			c2.3,0.9,4.8,1.3,7.3,1.3c2.9,0,5.5-0.4,7.6-1.3c2.1-0.9,3.9-2,5.3-3.3c1.4-1.3,2.5-2.7,3.3-4.2c0.8-1.5,1.4-2.8,1.7-4l14.5,4.1
			c-0.6,2.4-1.6,4.9-3,7.7c-1.4,2.8-3.5,5.3-6,7.7c-2.6,2.4-5.8,4.4-9.6,6C705.8,67.7,701.3,68.5,696,68.5z"/>
		<path d="M696,68.5c-4.9,0-9.5-0.8-13.8-2.5c-4.3-1.7-8-4.1-11.2-7.2s-5.7-6.8-7.5-11.1c-1.9-4.4-2.8-9.2-2.8-14.5
			c0-5.3,0.9-10.2,2.8-14.5c1.9-4.4,4.4-8.1,7.6-11.2c3.2-3.1,6.9-5.5,11.2-7.2c4.3-1.7,8.8-2.6,13.5-2.6c5.1,0,9.5,0.7,13.2,2.2
			c3.7,1.5,6.8,3.3,9.4,5.6c2.6,2.3,4.6,4.8,6,7.4c1.4,2.7,2.4,5.2,3,7.7L713.2,25c-0.3-1.2-0.8-2.5-1.5-3.9
			c-0.7-1.5-1.8-2.9-3.1-4.2c-1.3-1.3-3.1-2.4-5.1-3.3c-2.1-0.9-4.6-1.3-7.6-1.3c-2.3,0-4.6,0.4-6.9,1.2c-2.3,0.8-4.4,2.1-6.2,3.8
			c-1.9,1.7-3.4,3.9-4.5,6.5c-1.2,2.6-1.7,5.7-1.7,9.3c0,3.2,0.5,6,1.6,8.5c1.1,2.5,2.5,4.6,4.4,6.3c1.8,1.7,3.9,3,6.2,3.9
			c2.3,0.9,4.8,1.3,7.3,1.3c2.9,0,5.5-0.4,7.6-1.3c2.1-0.9,3.9-2,5.3-3.3c1.4-1.3,2.5-2.7,3.3-4.2c0.8-1.5,1.4-2.8,1.7-4l14.5,4.1
			c-0.6,2.4-1.6,4.9-3,7.7c-1.4,2.8-3.5,5.3-6,7.7c-2.6,2.4-5.8,4.4-9.6,6C705.8,67.7,701.3,68.5,696,68.5z"/>
		<path d="M786.5,53.2h-26.3L755.3,67h-15.9L765-1h17.6L808,67h-16.5L786.5,53.2z M765.2,39.4h16.5l-8.2-23.5L765.2,39.4z"/>
		<path d="M858.3,19.5c-0.1-0.8-0.4-1.6-0.8-2.6c-0.4-1-1.1-1.9-1.9-2.8c-0.9-0.9-2-1.6-3.4-2.2c-1.4-0.6-3.1-0.9-5.2-0.9
			c-2.8,0-5.1,0.8-6.8,2.3c-1.7,1.5-2.5,3.2-2.5,5c0,1.7,0.5,3.1,1.6,4.2c1.1,1.1,2.8,1.9,5.1,2.4l9.1,1.7c3.3,0.6,6.1,1.5,8.5,2.8
			c2.4,1.3,4.5,2.9,6.1,4.7c1.7,1.8,2.9,3.8,3.7,6c0.8,2.2,1.2,4.5,1.2,7c0,2.7-0.5,5.3-1.6,7.9c-1.1,2.6-2.7,4.8-4.8,6.9
			c-2.1,2-4.8,3.6-7.9,4.9c-3.1,1.2-6.7,1.9-10.8,1.9c-4.7,0-8.8-0.7-12.2-2.1c-3.4-1.4-6.2-3.1-8.4-5.2c-2.2-2.1-3.9-4.4-5.1-7
			c-1.2-2.6-1.9-5.1-2.1-7.5l13.9-3.4c0.1,1.5,0.5,3,1.1,4.5c0.6,1.4,1.5,2.7,2.6,3.7c1.2,1.1,2.6,1.9,4.3,2.5c1.7,0.6,3.7,1,6,1
			c3,0,5.4-0.7,7.1-2c1.7-1.3,2.5-3,2.5-5.1c0-1.7-0.7-3.2-2-4.4c-1.3-1.2-3.1-2-5.3-2.4l-9.3-1.7c-5.8-1.1-10.4-3.4-13.6-7
			c-3.3-3.6-4.9-7.9-4.9-13c0-3.2,0.7-6.1,2-8.8c1.3-2.7,3.1-5,5.3-6.9s4.8-3.4,7.8-4.5c2.9-1.1,6-1.6,9.3-1.6
			c4.2,0,7.8,0.6,10.8,1.7c3,1.2,5.5,2.6,7.4,4.4c2,1.8,3.4,3.7,4.5,5.9c1,2.1,1.7,4.2,2.1,6.2L858.3,19.5z"/>
		<path d="M894.2,67V-1h43.1v14.3h-27.9v13h25.3v13.3h-25.3v13.1h28V67H894.2z"/>
	</g>
	<g id="Rectangle_323" transform="translate(0 47)">
		<g>
			<path class="st1" d="M568.6-42v28h56v-28H568.6z"/>
		</g>
	</g>
	<g id="Rectangle_324" transform="translate(0 81)">
		<g>
			<path d="M562.6-82v68h68v-68H562.6z M624.6-48h-56v-28h56V-48z"/>
		</g>
	</g>
</g>
<g>
	<g class="st0">
		<path d="M133.5,71c-4.9,0-9.5-0.8-13.8-2.5c-4.3-1.7-8-4.1-11.2-7.2s-5.7-6.8-7.5-11.1c-1.9-4.4-2.8-9.2-2.8-14.5
			c0-5.3,0.9-10.2,2.8-14.5c1.9-4.4,4.4-8.1,7.6-11.2c3.2-3.1,6.9-5.5,11.2-7.2c4.3-1.7,8.8-2.6,13.5-2.6c5.1,0,9.5,0.7,13.2,2.2
			c3.7,1.5,6.8,3.3,9.4,5.6c2.6,2.3,4.6,4.8,6,7.4c1.4,2.7,2.4,5.2,3,7.7l-14.3,4.5c-0.3-1.2-0.8-2.5-1.5-3.9
			c-0.7-1.5-1.8-2.9-3.1-4.2c-1.3-1.3-3.1-2.4-5.1-3.3c-2.1-0.9-4.6-1.3-7.6-1.3c-2.3,0-4.6,0.4-6.9,1.2c-2.3,0.8-4.4,2.1-6.2,3.8
			c-1.9,1.7-3.4,3.9-4.5,6.5c-1.2,2.6-1.7,5.7-1.7,9.3c0,3.2,0.5,6,1.6,8.5c1.1,2.5,2.5,4.6,4.4,6.3c1.8,1.7,3.9,3,6.2,3.9
			c2.3,0.9,4.8,1.3,7.3,1.3c2.9,0,5.5-0.4,7.6-1.3c2.1-0.9,3.9-2,5.3-3.3c1.4-1.3,2.5-2.7,3.3-4.2c0.8-1.5,1.4-2.8,1.7-4l14.5,4.1
			c-0.6,2.4-1.6,4.9-3,7.7c-1.4,2.8-3.5,5.3-6,7.7c-2.6,2.4-5.8,4.4-9.6,6C143.3,70.2,138.8,71,133.5,71z"/>
		<path d="M133.5,71c-4.9,0-9.5-0.8-13.8-2.5c-4.3-1.7-8-4.1-11.2-7.2s-5.7-6.8-7.5-11.1c-1.9-4.4-2.8-9.2-2.8-14.5
			c0-5.3,0.9-10.2,2.8-14.5c1.9-4.4,4.4-8.1,7.6-11.2c3.2-3.1,6.9-5.5,11.2-7.2c4.3-1.7,8.8-2.6,13.5-2.6c5.1,0,9.5,0.7,13.2,2.2
			c3.7,1.5,6.8,3.3,9.4,5.6c2.6,2.3,4.6,4.8,6,7.4c1.4,2.7,2.4,5.2,3,7.7l-14.3,4.5c-0.3-1.2-0.8-2.5-1.5-3.9
			c-0.7-1.5-1.8-2.9-3.1-4.2c-1.3-1.3-3.1-2.4-5.1-3.3c-2.1-0.9-4.6-1.3-7.6-1.3c-2.3,0-4.6,0.4-6.9,1.2c-2.3,0.8-4.4,2.1-6.2,3.8
			c-1.9,1.7-3.4,3.9-4.5,6.5c-1.2,2.6-1.7,5.7-1.7,9.3c0,3.2,0.5,6,1.6,8.5c1.1,2.5,2.5,4.6,4.4,6.3c1.8,1.7,3.9,3,6.2,3.9
			c2.3,0.9,4.8,1.3,7.3,1.3c2.9,0,5.5-0.4,7.6-1.3c2.1-0.9,3.9-2,5.3-3.3c1.4-1.3,2.5-2.7,3.3-4.2c0.8-1.5,1.4-2.8,1.7-4l14.5,4.1
			c-0.6,2.4-1.6,4.9-3,7.7c-1.4,2.8-3.5,5.3-6,7.7c-2.6,2.4-5.8,4.4-9.6,6C143.3,70.2,138.8,71,133.5,71z"/>
		<path d="M133.5,71c-4.9,0-9.5-0.8-13.8-2.5c-4.3-1.7-8-4.1-11.2-7.2s-5.7-6.8-7.5-11.1c-1.9-4.4-2.8-9.2-2.8-14.5
			c0-5.3,0.9-10.2,2.8-14.5c1.9-4.4,4.4-8.1,7.6-11.2c3.2-3.1,6.9-5.5,11.2-7.2c4.3-1.7,8.8-2.6,13.5-2.6c5.1,0,9.5,0.7,13.2,2.2
			c3.7,1.5,6.8,3.3,9.4,5.6c2.6,2.3,4.6,4.8,6,7.4c1.4,2.7,2.4,5.2,3,7.7l-14.3,4.5c-0.3-1.2-0.8-2.5-1.5-3.9
			c-0.7-1.5-1.8-2.9-3.1-4.2c-1.3-1.3-3.1-2.4-5.1-3.3c-2.1-0.9-4.6-1.3-7.6-1.3c-2.3,0-4.6,0.4-6.9,1.2c-2.3,0.8-4.4,2.1-6.2,3.8
			c-1.9,1.7-3.4,3.9-4.5,6.5c-1.2,2.6-1.7,5.7-1.7,9.3c0,3.2,0.5,6,1.6,8.5c1.1,2.5,2.5,4.6,4.4,6.3c1.8,1.7,3.9,3,6.2,3.9
			c2.3,0.9,4.8,1.3,7.3,1.3c2.9,0,5.5-0.4,7.6-1.3c2.1-0.9,3.9-2,5.3-3.3c1.4-1.3,2.5-2.7,3.3-4.2c0.8-1.5,1.4-2.8,1.7-4l14.5,4.1
			c-0.6,2.4-1.6,4.9-3,7.7c-1.4,2.8-3.5,5.3-6,7.7c-2.6,2.4-5.8,4.4-9.6,6C143.3,70.2,138.8,71,133.5,71z"/>
		<path d="M224,55.7h-26.3l-4.9,13.8h-15.9l25.6-68.1h17.6l25.3,68.1h-16.5L224,55.7z M202.7,41.9h16.5l-8.2-23.5L202.7,41.9z"/>
		<path d="M295.8,22c-0.1-0.8-0.4-1.6-0.8-2.6c-0.4-1-1.1-1.9-1.9-2.8c-0.9-0.9-2-1.6-3.4-2.2c-1.4-0.6-3.1-0.9-5.2-0.9
			c-2.8,0-5.1,0.8-6.8,2.3c-1.7,1.5-2.5,3.2-2.5,5c0,1.7,0.5,3.1,1.6,4.2c1.1,1.1,2.8,1.9,5.1,2.4L291,29c3.3,0.6,6.1,1.5,8.5,2.8
			c2.4,1.3,4.5,2.9,6.1,4.7c1.7,1.8,2.9,3.8,3.7,6c0.8,2.2,1.2,4.5,1.2,7c0,2.7-0.5,5.3-1.6,7.9c-1.1,2.6-2.7,4.8-4.8,6.9
			c-2.1,2-4.8,3.6-7.9,4.9c-3.1,1.2-6.7,1.9-10.8,1.9c-4.7,0-8.8-0.7-12.2-2.1c-3.4-1.4-6.2-3.1-8.4-5.2c-2.2-2.1-3.9-4.4-5.1-7
			c-1.2-2.6-1.9-5.1-2.1-7.5l13.9-3.4c0.1,1.5,0.5,3,1.1,4.5c0.6,1.4,1.5,2.7,2.6,3.7c1.2,1.1,2.6,1.9,4.3,2.5c1.7,0.6,3.7,1,6,1
			c3,0,5.4-0.7,7.1-2c1.7-1.3,2.5-3,2.5-5.1c0-1.7-0.7-3.2-2-4.4c-1.3-1.2-3.1-2-5.3-2.4l-9.3-1.7c-5.8-1.1-10.4-3.4-13.6-7
			c-3.3-3.6-4.9-7.9-4.9-13c0-3.2,0.7-6.1,2-8.8c1.3-2.7,3.1-5,5.3-6.9s4.8-3.4,7.8-4.5c2.9-1.1,6-1.6,9.3-1.6
			c4.2,0,7.8,0.6,10.8,1.7c3,1.2,5.5,2.6,7.4,4.4c2,1.8,3.4,3.7,4.5,5.9c1,2.1,1.7,4.2,2.1,6.2L295.8,22z"/>
		<path d="M331.7,69.5V1.5h43.1v14.3h-27.9v13h25.3v13.3h-25.3v13.1h28v14.4H331.7z"/>
	</g>
	<g id="Rectangle_323_2_" transform="translate(0 47)">
		<g>
			<path class="st1" d="M6.1-39.5v28h56v-28H6.1z"/>
		</g>
	</g>
	<g id="Rectangle_324_2_" transform="translate(0 81)">
		<g>
			<path d="M0.1-79.5v68h68v-68H0.1z M62.1-45.5h-56v-28h56V-45.5z"/>
		</g>
	</g>
</g>
<path d="M651.6,570.8c-0.8,3.2-2.1,6.6-4,10.3c-1.9,3.7-4.6,7.1-8.1,10.4c-3.5,3.2-7.8,5.9-12.9,8c-5.1,2.1-11.2,3.2-18.3,3.2
	c-6.6,0-12.8-1.1-18.5-3.4c-5.7-2.3-10.7-5.5-15-9.6c-4.2-4.1-7.6-9.1-10.1-14.9c-2.5-5.8-3.7-12.3-3.7-19.4c0-0.4,0-0.9,0-1.3
	c0.1-6.6,1.4-12.7,3.8-18.2c2.5-5.9,5.9-10.9,10.2-15c4.3-4.2,9.3-7.4,15-9.7c5.7-2.3,11.7-3.5,18.1-3.5c6.8,0,12.8,1,17.7,3
	c5,2,9.2,4.5,12.6,7.5c3.4,3,6.1,6.4,8,10c1.9,3.6,3.3,7,4,10.3l-19.2,6.1c-0.3-1.6-1-3.3-2-5.3c-1-2-2.4-3.8-4.2-5.6
	c-1.8-1.8-4.1-3.2-6.9-4.4c-2.8-1.1-6.2-1.7-10.2-1.7c-3.1,0-6.2,0.6-9.3,1.7c-3.1,1.1-5.9,2.8-8.3,5.1c-2.5,2.3-4.5,5.2-6,8.7
	c-1.4,3.2-2.2,6.9-2.3,11.2c0,0.4,0,0.9,0,1.3c0,4.3,0.7,8.1,2.2,11.4c1.5,3.3,3.4,6.2,5.9,8.5c2.4,2.3,5.2,4.1,8.3,5.3
	c3.1,1.2,6.4,1.8,9.8,1.8c4,0,7.3-0.6,10.2-1.7c2.8-1.2,5.2-2.6,7.1-4.4c1.9-1.8,3.4-3.6,4.4-5.6c1.1-2,1.8-3.8,2.2-5.4L651.6,570.8
	z"/>
<path d="M740.8,554.1l-16.6-44.5h-23.5l-16.8,44.5l-17.6,46.7h21.3l6.6-18.5h35.2l6.6,18.5h22.1L740.8,554.1z M700.9,563.7l3.4-9.6
	l7.8-21.9l7.6,21.9l3.3,9.6H700.9z"/>
<path d="M845.4,573.9c0,3.6-0.7,7.1-2.2,10.5c-1.5,3.4-3.6,6.5-6.5,9.2s-6.4,4.9-10.6,6.6c-4.2,1.7-9,2.5-14.4,2.5
	c-6.3,0-11.8-0.9-16.3-2.8c-4.5-1.8-8.3-4.2-11.3-7c-3-2.8-5.3-6-6.8-9.4c-1.5-3.4-2.5-6.8-2.8-10l18.6-4.5c0.2,2,0.7,4,1.5,6
	c0.8,1.9,2,3.6,3.5,5c1.5,1.4,3.5,2.5,5.8,3.4c2.3,0.9,5,1.3,8.1,1.3c4,0,7.2-0.9,9.5-2.6c2.3-1.8,3.4-4,3.4-6.9
	c0-2.3-0.9-4.3-2.6-5.8c-1.8-1.6-4.1-2.7-7.1-3.3l-12.5-2.3c-7.8-1.5-13.9-4.6-18.2-9.4c-0.1-0.1-0.1-0.2-0.2-0.2
	c-4.2-4.7-6.3-10.4-6.3-17.1c0-4.3,0.9-8.2,2.6-11.8c1.8-3.6,4.1-6.7,7.1-9.2s6.5-4.6,10.4-6c4-1.5,8.1-2.2,12.5-2.2
	c5.7,0,10.5,0.8,14.5,2.3c4,1.5,7.4,3.5,10,5.8c2.6,2.4,4.6,5,6,7.8s2.3,5.6,2.8,8.3l-18.2,5.1c-0.2-1-0.5-2.2-1.1-3.5
	c-0.6-1.3-1.4-2.6-2.6-3.7c-1.2-1.2-2.7-2.1-4.6-3c-1.9-0.8-4.2-1.2-7-1.2c-3.8,0-6.8,1-9.1,3c-2.3,2-3.4,4.3-3.4,6.8
	c0,2.2,0.7,4.1,2.1,5.6c1.4,1.5,3.7,2.5,6.9,3.2l12.2,2.3c4.4,0.8,8.2,2,11.4,3.8c2.1,1.1,4,2.4,5.6,3.8c0.9,0.8,1.8,1.6,2.6,2.4
	c2.2,2.4,3.9,5.1,5,8C844.9,567.5,845.4,570.6,845.4,573.9z"/>
<polygon points="931.4,581.5 931.4,600.8 873.6,600.8 873.6,509.6 931.3,509.6 931.3,528.8 893.9,528.8 893.9,546.1 927.8,546.1 
	927.8,564 893.9,564 893.9,581.5 "/>
<text transform="matrix(1 0 0 1 1194.0016 55.489)" style="font-family:'Zbiqxcmfqgtcrnnfojjucyrkyqs'; font-size:96px; letter-spacing:9;">CASE</text>
<g id="Rectangle_323_1_" transform="translate(0 47)">
	<rect x="1099.7" y="-59.5" class="st1" width="68" height="68"/>
	<rect x="1102.7" y="-56.5" class="st2" width="62" height="62"/>
</g>
<g id="Rectangle_324_1_" transform="translate(0 81)">
	<rect x="1099.7" y="-59.5" width="68" height="34.3"/>
	<rect x="1102.7" y="-56.5" class="st2" width="62" height="28.3"/>
</g>
</svg>
